{
  "extensionsUsed": [
    "KHR_materials_transmission",
    "KHR_materials_clearcoat",
    "KHR_materials_ior",
    "KHR_materials_specular",
    "KHR_materials_emissive_strength",
    "KHR_texture_transform"
  ],
  "accessors": [
    {
      "bufferView": 0,
      "componentType": 5126,
      "count": 186,
      "type": "VEC3",
      "max": [
        -0.0014574953,
        0.0042095007,
        -0.0032192497
      ],
      "min": [
        -0.009636857,
        0.0040095,
        -0.00974975
      ]
    },
    {
      "bufferView": 1,
      "componentType": 5125,
      "count": 552,
      "type": "SCALAR",
      "max": [
        185.0
      ],
      "min": [
        0.0
      ]
    },
    {
      "bufferView": 2,
      "componentType": 5126,
      "count": 186,
      "type": "VEC3",
      "max": [
        0.72584,
        0.7163444,
        0.77458113
      ],
      "min": [
        -0.69921833,
        0.4397926,
        -0.8752934
      ]
    },
    {
      "bufferView": 3,
      "componentType": 5126,
      "count": 186,
      "type": "VEC2",
      "max": [
        0.29394102,
        0.99853516
      ],
      "min": [
        0.28390068,
        0.0
      ]
    },
    {
      "bufferView": 4,
      "componentType": 5126,
      "count": 92,
      "type": "VEC3",
      "max": [
        -0.0016619134,
        0.0042095007,
        -0.003382469
      ],
      "min": [
        -0.009432307,
        0.0042095007,
        -0.009586447
      ]
    },
    {
      "bufferView": 5,
      "componentType": 5125,
      "count": 270,
      "type": "SCALAR",
      "max": [
        91.0
      ],
      "min": [
        0.0
      ]
    },
    {
      "bufferView": 6,
      "componentType": 5126,
      "count": 92,
      "type": "VEC3",
      "max": [
        0.0,
        1.0,
        0.0
      ],
      "min": [
        0.0,
        1.0,
        0.0
      ]
    },
    {
      "bufferView": 7,
      "componentType": 5126,
      "count": 92,
      "type": "VEC2",
      "max": [
        0.5636467,
        0.33780256
      ],
      "min": [
        0.29540586,
        0.0
      ]
    },
    {
      "bufferView": 8,
      "componentType": 5126,
      "count": 92,
      "type": "VEC3",
      "max": [
        -0.0014574953,
        0.0040095,
        -0.0032192497
      ],
      "min": [
        -0.009636857,
        0.0040095,
        -0.00974975
      ]
    },
    {
      "bufferView": 9,
      "componentType": 5125,
      "count": 270,
      "type": "SCALAR",
      "max": [
        91.0
      ],
      "min": [
        0.0
      ]
    },
    {
      "bufferView": 10,
      "componentType": 5126,
      "count": 92,
      "type": "VEC3",
      "max": [
        0.0,
        -1.0,
        0.0
      ],
      "min": [
        0.0,
        -1.0,
        0.0
      ]
    },
    {
      "bufferView": 11,
      "componentType": 5126,
      "count": 92,
      "type": "VEC2",
      "max": [
        0.28243583,
        0.35558164
      ],
      "min": [
        0.0,
        0.0
      ]
    },
    {
      "bufferView": 12,
      "componentType": 5126,
      "count": 1007,
      "type": "VEC3",
      "max": [
        -0.004026997,
        0.0049006552,
        -0.00447101
      ],
      "min": [
        -0.00675557,
        0.0042095007,
        -0.007199585
      ]
    },
    {
      "bufferView": 13,
      "componentType": 5125,
      "count": 5652,
      "type": "SCALAR",
      "max": [
        1006.0
      ],
      "min": [
        0.0
      ]
    },
    {
      "bufferView": 14,
      "componentType": 5126,
      "count": 1007,
      "type": "VEC3",
      "max": [
        0.9403456,
        1.0,
        0.9403456
      ],
      "min": [
        -0.9403456,
        0.34021235,
        -0.9403456
      ]
    },
    {
      "bufferView": 15,
      "componentType": 5126,
      "count": 1007,
      "type": "VEC2",
      "max": [
        0.99853516,
        0.62568676
      ],
      "min": [
        0.45759618,
        0.0
      ]
    },
    {
      "bufferView": 16,
      "componentType": 5126,
      "count": 128,
      "type": "VEC3",
      "max": [
        -0.004026997,
        0.0042095007,
        -0.00447101
      ],
      "min": [
        -0.00675557,
        0.0042095007,
        -0.007199585
      ]
    },
    {
      "bufferView": 17,
      "componentType": 5125,
      "count": 378,
      "type": "SCALAR",
      "max": [
        127.0
      ],
      "min": [
        0.0
      ]
    },
    {
      "bufferView": 18,
      "componentType": 5126,
      "count": 128,
      "type": "VEC3",
      "max": [
        0.0,
        -1.0,
        0.0
      ],
      "min": [
        0.0,
        -1.0,
        0.0
      ]
    },
    {
      "bufferView": 19,
      "componentType": 5126,
      "count": 128,
      "type": "VEC2",
      "max": [
        0.45613134,
        0.45759618
      ],
      "min": [
        0.0,
        0.0
      ]
    }
  ],
  "asset": {
    "version": "2.0"
  },
  "buffers": [
    {
      "uri": "data:application/octet-stream;base64,",
      "byteLength": 2232
    },
    {
      "uri": "data:application/octet-stream;base64,",
      "byteLength": 2208
    },
    {
      "uri": "data:application/octet-stream;base64,",
      "byteLength": 2232
    },
    {
      "uri": "data:application/octet-stream;base64,",
      "byteLength": 1488
    },
    {
      "uri": "data:application/octet-stream;base64,",
      "byteLength": 1104
    },
    {
      "uri": "data:application/octet-stream;base64,",
      "byteLength": 1080
    },
    {
      "uri": "data:application/octet-stream;base64,",
      "byteLength": 1104
    },
    {
      "uri": "data:application/octet-stream;base64,",
      "byteLength": 736
    },
    {
      "uri": "data:application/octet-stream;base64,",
      "byteLength": 1104
    },
    {
      "uri": "data:application/octet-stream;base64,",
      "byteLength": 1080
    },
    {
      "uri": "data:application/octet-stream;base64,",
      "byteLength": 1104
    },
    {
      "uri": "data:application/octet-stream;base64,",
      "byteLength": 736
    },
    {
      "uri": "data:application/octet-stream;base64,",
      "byteLength": 12084
    },
    {
      "uri": "data:application/octet-stream;base64,",
      "byteLength": 22608
    },
    {
      "uri": "data:application/octet-stream;base64,",
      "byteLength": 12084
    },
    {
      "uri": "data:application/octet-stream;base64,",
      "byteLength": 8056
    },
    {
      "uri": "data:application/octet-stream;base64,",
      "byteLength": 1536
    },
    {
      "uri": "data:application/octet-stream;base64,",
      "byteLength": 1512
    },
    {
      "uri": "data:application/octet-stream;base64,",
      "byteLength": 1536
    },
    {
      "uri": "data:application/octet-stream;base64,",
      "byteLength": 1024
    }
  ],
  "bufferViews": [
    {
      "buffer": 0,
      "byteLength": 2232,
      "target": 34962
    },
    {
      "buffer": 1,
      "byteLength": 2208,
      "target": 34963
    },
    {
      "buffer": 2,
      "byteLength": 2232,
      "target": 34962
    },
    {
      "buffer": 3,
      "byteLength": 1488,
      "target": 34962
    },
    {
      "buffer": 4,
      "byteLength": 1104,
      "target": 34962
    },
    {
      "buffer": 5,
      "byteLength": 1080,
      "target": 34963
    },
    {
      "buffer": 6,
      "byteLength": 1104,
      "target": 34962
    },
    {
      "buffer": 7,
      "byteLength": 736,
      "target": 34962
    },
    {
      "buffer": 8,
      "byteLength": 1104,
      "target": 34962
    },
    {
      "buffer": 9,
      "byteLength": 1080,
      "target": 34963
    },
    {
      "buffer": 10,
      "byteLength": 1104,
      "target": 34962
    },
    {
      "buffer": 11,
      "byteLength": 736,
      "target": 34962
    },
    {
      "buffer": 12,
      "byteLength": 12084,
      "target": 34962
    },
    {
      "buffer": 13,
      "byteLength": 22608,
      "target": 34963
    },
    {
      "buffer": 14,
      "byteLength": 12084,
      "target": 34962
    },
    {
      "buffer": 15,
      "byteLength": 8056,
      "target": 34962
    },
    {
      "buffer": 16,
      "byteLength": 1536,
      "target": 34962
    },
    {
      "buffer": 17,
      "byteLength": 1512,
      "target": 34963
    },
    {
      "buffer": 18,
      "byteLength": 1536,
      "target": 34962
    },
    {
      "buffer": 19,
      "byteLength": 1024,
      "target": 34962
    }
  ],
  "materials": [
    {
      "pbrMetallicRoughness": {
        "baseColorFactor": [
          0.98039216,
          0.98039216,
          0.98039216,
          1.0
        ]
      }
    },
    {
      "pbrMetallicRoughness": {
        "baseColorFactor": [
          1.0,
          0.74509805,
          0.0,
          1.0
        ]
      }
    }
  ],
  "meshes": [
    {
      "primitives": [
        {
          "attributes": {
            "POSITION": 0,
            "NORMAL": 2,
            "TEXCOORD_0": 3
          },
          "indices": 1,
          "material": 0
        },
        {
          "attributes": {
            "POSITION": 4,
            "NORMAL": 6,
            "TEXCOORD_0": 7
          },
          "indices": 5,
          "material": 0
        },
        {
          "attributes": {
            "POSITION": 8,
            "NORMAL": 10,
            "TEXCOORD_0": 11
          },
          "indices": 9,
          "material": 0
        }
      ]
    },
    {
      "primitives": [
        {
          "attributes": {
            "POSITION": 12,
            "NORMAL": 14,
            "TEXCOORD_0": 15
          },
          "indices": 13,
          "material": 1
        },
        {
          "attributes": {
            "POSITION": 16,
            "NORMAL": 18,
            "TEXCOORD_0": 19
          },
          "indices": 17,
          "material": 1
        }
      ]
    }
  ],
  "nodes": [
    {
      "mesh": 0
    },
    {
      "mesh": 1
    }
  ],
  "samplers": [
    {
      "magFilter": 9729,
      "minFilter": 9729
    }
  ],
  "scene": 0,
  "scenes": [
    {
      "nodes": [
        0,
        1
      ],
      "extensions": {}
    }
  ],
  "extensions": {}
}